<?xml version="1.0" encoding="UTF-8" standalone="no"?>
<!-- Created with Inkscape (http://www.inkscape.org/) -->

<svg
   width="99.943031mm"
   height="31.999994mm"
   viewBox="0 0 99.943031 31.999994"
   version="1.1"
   id="svg1"
   xmlns:xlink="http://www.w3.org/1999/xlink"
   xmlns="http://www.w3.org/2000/svg"
   xmlns:svg="http://www.w3.org/2000/svg">
  <defs
     id="defs1">
    <linearGradient
       id="linearGradient9">
      <stop
         style="stop-color:#e56f8c;stop-opacity:1;"
         offset="0"
         id="stop9" />
      <stop
         style="stop-color:#7476ed;stop-opacity:1;"
         offset="0.4936755"
         id="stop11" />
      <stop
         style="stop-color:#64c2db;stop-opacity:1;"
         offset="1"
         id="stop10" />
    </linearGradient>
    <linearGradient
       xlink:href="#linearGradient9"
       id="linearGradient116-6"
       gradientUnits="userSpaceOnUse"
       gradientTransform="matrix(0.5360853,0,0,0.5360853,32.952343,77.450344)"
       x1="33.320885"
       y1="221.84044"
       x2="76.767418"
       y2="148.51924" />
  </defs>
  <g
     id="layer1"
     transform="translate(-56.214879,-124.18242)">
    <g
       id="g120"
       transform="translate(7.0398254,37.97168)">
      <g
         id="g117"
         transform="translate(2.812432,4.7998093)">
        <path
           d="m 106.66466,88.485626 v 2.918168 h 3.76928 v -2.918168 z m -21.449852,0.291455 v 17.267159 h 3.696415 V 94.85733 l 4.036963,11.13834 h 3.161564 l 4.06177,-11.13834 v 11.18691 h 3.69641 V 88.777081 H 98.930767 L 94.553256,101.35047 90.151458,88.777081 Z m 29.130002,1.167371 v 3.064412 h -2.09134 v 2.723865 h 2.09134 v 6.395991 c 0,1.3619 0.31595,2.35924 0.94827,2.99155 0.63231,0.6161 1.62157,0.92397 2.96726,0.92397 h 3.16156 v -2.72386 h -1.82418 c -0.55124,0 -0.95653,-0.11356 -1.21594,-0.34055 -0.25941,-0.24319 -0.38913,-0.67271 -0.38913,-1.28881 v -5.958291 h 3.42925 v -2.723865 h -3.42925 v -3.064412 z m 24.98091,2.772441 c -1.70238,0 -3.07219,0.372991 -4.10983,1.118794 -1.03764,0.729591 -1.67813,1.807674 -1.92133,3.234428 l 3.64784,0.170533 c 0.1297,-0.616099 0.38913,-1.07843 0.77825,-1.386479 0.38911,-0.324263 0.92412,-0.486275 1.60507,-0.486275 0.72959,0 1.28074,0.219053 1.65364,0.656807 0.38912,0.421541 0.58395,1.05396 0.58395,1.897042 l -4.2075,0.826823 c -1.45918,0.291836 -2.53726,0.75365 -3.23443,1.385964 -0.69716,0.63231 -1.04593,1.51608 -1.04593,2.651 0,1.10249 0.41388,1.9696 1.24075,2.60191 0.84309,0.63231 1.95347,0.94878 3.33158,0.94878 1.26463,0 2.31041,-0.25943 3.13728,-0.77825 0.61793,-0.39984 1.07229,-0.89958 1.36426,-1.49862 0.10813,0.64088 0.3376,1.1305 0.7028,1.45004 0.53503,0.45397 1.24871,0.68058 2.14043,0.68058 0.2432,0 0.48596,-0.0161 0.72916,-0.0486 0.25941,-0.0324 0.45424,-0.0647 0.58394,-0.0972 v -2.50475 h -0.36483 c -0.25941,0 -0.44565,-0.0651 -0.55914,-0.19482 -0.11349,-0.12971 -0.17053,-0.37298 -0.17053,-0.72967 v -4.450378 c 0,-1.783443 -0.49463,-3.137103 -1.48363,-4.061251 -0.989,-0.924147 -2.45623,-1.386478 -4.4018,-1.386478 z m -32.58819,0.291971 v 13.035376 h 3.64783 V 93.008864 Z m 17.11626,0 v 13.035376 h 3.64784 v -7.319962 c 0,-0.648525 0.10549,-1.167379 0.31626,-1.556494 0.21077,-0.389115 0.5348,-0.673284 0.97255,-0.851628 0.43776,-0.194557 1.00558,-0.291455 1.70274,-0.291455 h 1.19166 v -3.015837 h -1.19166 c -0.94036,0 -1.67827,0.291727 -2.2133,0.875399 -0.37823,0.412614 -0.6711,1.017499 -0.88728,1.794723 l -0.0858,-2.670122 z m 17.70952,7.198526 v 0.63252 c 0,0.6161 -0.12972,1.1511 -0.38913,1.60507 -0.24319,0.45397 -0.60004,0.80274 -1.07022,1.04593 -0.45396,0.22699 -0.98089,0.34003 -1.58078,0.34003 -0.56746,0 -0.99697,-0.11304 -1.28881,-0.34003 -0.27562,-0.24319 -0.41341,-0.59196 -0.41341,-1.04593 0,-0.42154 0.14586,-0.76223 0.4377,-1.02164 0.29184,-0.27563 0.7375,-0.46994 1.33739,-0.58343 z"
           style="font-size:24.3197px;font-family:Geist;-inkscape-font-specification:'Geist, @wght=700';font-variation-settings:'wght' 700;fill:#ffffff;stroke-width:4.44308;stroke-linecap:square;paint-order:stroke fill markers"
           id="path120" />
      </g>
      <path
         style="font-variation-settings:'wght' 700;fill:url(#linearGradient116-6);fill-opacity:1;stroke:none;stroke-width:5.26;stroke-linecap:square;stroke-linejoin:miter;stroke-dasharray:none;stroke-opacity:1;paint-order:stroke fill markers"
         id="rect76-8-8-6-8"
         width="31.450497"
         height="33.771469"
         x="48.086899"
         y="156.7605"
         d="m 53.907732,156.7605 h 19.80883 a 5.8208333,5.8208333 45 0 1 5.820833,5.82083 l 0,22.1298 a 5.8208333,5.8208333 135 0 1 -5.820833,5.82084 h -19.80883 a 5.8208333,5.8208333 45 0 1 -5.820833,-5.82084 v -22.1298 a 5.8208333,5.8208333 135 0 1 5.820833,-5.82083 z"
         transform="matrix(1.017472,0,0,0.94754539,0.24798172,-62.326955)" />
      <g
         id="g4-5-0-4"
         transform="matrix(0.26804265,0,0,0.26804265,38.080377,82.67352)"
         style="fill:#000000;fill-opacity:1">
        <path
           id="path2-0-7-7"
           style="fill:#000000;fill-opacity:1;stroke-width:2.2;stroke-linecap:round;stroke-linejoin:round;paint-order:markers stroke fill"
           d="m 123.16797,46.77601 v 52.001477 h 10.87995 V 46.77601 Z" />
        <path
           id="path3-6-0-2"
           style="fill:#000000;fill-opacity:1;stroke-width:2.1998;stroke-linecap:round;stroke-linejoin:round;paint-order:markers stroke fill"
           d="M 123.16841,46.774619 95.648006,98.877046 H 107.5863 l 26.46339,-52.10286 z" />
        <path
           id="rect1-4-1-4"
           style="fill:#000000;fill-opacity:1;stroke-width:2.2;stroke-linecap:round;stroke-linejoin:round;paint-order:markers stroke fill"
           d="M 95.637193,46.901691 V 98.903168 H 106.51715 V 46.901691 Z" />
        <path
           id="rect1-5-6-0-0"
           style="fill:#000000;fill-opacity:1;stroke-width:2.1998;stroke-linecap:round;stroke-linejoin:round;paint-order:markers stroke fill"
           d="m 95.637631,46.900277 -27.5204,52.102427 H 80.05552 l 26.46339,-52.10286 z" />
      </g>
    </g>
  </g>
</svg>
